# xmcd CD database file
#
# Track frame offsets:
#	150
#	45281
#	59904
#	90946
#	157870
#	181962
#	248203
#
# Disc length: 4444 seconds
#
# Revision: 0
# Processed by: cddbd v1.5.1PL2 Copyright (c) Steve Scherf et al.
# Submitted via: CDex 1.51
#
DISCID=4d115a07
DTITLE=Nobukazu Takemura Collection - Shibuya Jazz Classics
DYEAR=2005
DGENRE=Jazz
TTITLE0=Masayuki "Jojo" Takayanagi and New Direction for the Arts - Sun in the east
TTITLE1=Masayuki "Jojo" Takayanagi Second Concert - Lennie's Pennies
TTITLE2=Hideto Kanai Quintet - Mr. Gabe
TTITLE3=Masayuki "Jojo" Takayanagi and New Direction Unit - Bohimei
TTITLE4=Hiroshi Fukumura Quintet - Winter Song
TTITLE5=Albert Mangelsdorff Quartet - Spring and Swing
TTITLE6=Tee and Company - Spanish Flower
EXTD=YEAR: 2005
EXTT0=
EXTT1=
EXTT2=
EXTT3=
EXTT4=
EXTT5=
EXTT6=
PLAYORDER=
